solid
 facet normal  0.000000e+00 -1.000000e+00 -0.000000e+00
   outer loop
     vertex -7.776375e-03  0.000000e+00  6.287129e-03
     vertex -8.330942e-03  0.000000e+00  5.531312e-03
     vertex -6.467699e-03  0.000000e+00  7.626852e-03
   endloop
 endfacet
 facet normal  0.000000e+00  1.000000e+00 -0.000000e+00
   outer loop
     vertex -6.467699e-03  0.000000e+00  7.626852e-03
     vertex -7.776375e-03  0.000000e+00  6.287129e-03
     vertex -7.153470e-03  0.000000e+00  6.987694e-03
   endloop
 endfacet
 facet normal  0.000000e+00  1.000000e+00  0.000000e+00
   outer loop
     vertex  8.062520e-03  0.000000e+00 -5.915722e-03
     vertex  7.473136e-03  0.000000e+00 -6.644715e-03
     vertex  6.818078e-03  0.000000e+00 -7.315313e-03
   endloop
 endfacet
 facet normal  0.000000e+00  1.000000e+00  0.000000e+00
   outer loop
     vertex -5.334493e-03  0.000000e+00 -8.458321e-03
     vertex -6.103103e-03  0.000000e+00 -7.921625e-03
     vertex -6.818078e-03  0.000000e+00 -7.315313e-03
   endloop
 endfacet
 facet normal  0.000000e+00 -1.000000e+00  0.000000e+00
   outer loop
     vertex -7.473136e-03  0.000000e+00 -6.644715e-03
     vertex -6.818078e-03  0.000000e+00 -7.315313e-03
     vertex -5.334493e-03  0.000000e+00 -8.458321e-03
   endloop
 endfacet
 facet normal  0.000000e+00  1.000000e+00 -0.000000e+00
   outer loop
     vertex -4.932169e-03  0.000000e+00  8.699064e-03
     vertex -6.467699e-03  0.000000e+00  7.626852e-03
     vertex -5.725090e-03  0.000000e+00  8.198984e-03
   endloop
 endfacet
 facet normal  0.000000e+00 -1.000000e+00 -0.000000e+00
   outer loop
     vertex -6.467699e-03  0.000000e+00  7.626852e-03
     vertex -8.330942e-03  0.000000e+00  5.531312e-03
     vertex -4.932169e-03  0.000000e+00  8.699064e-03
   endloop
 endfacet
 facet normal  0.000000e+00 -1.000000e+00  0.000000e+00
   outer loop
     vertex -7.473136e-03  0.000000e+00 -6.644715e-03
     vertex -5.334493e-03  0.000000e+00 -8.458321e-03
     vertex -4.519003e-03  0.000000e+00 -8.920684e-03
   endloop
 endfacet
 facet normal  0.000000e+00 -1.000000e+00  0.000000e+00
   outer loop
     vertex -8.062520e-03  0.000000e+00 -5.915722e-03
     vertex -7.473136e-03  0.000000e+00 -6.644715e-03
     vertex -9.024170e-03  0.000000e+00 -4.308637e-03
   endloop
 endfacet
 facet normal  0.000000e+00  1.000000e+00  0.000000e+00
   outer loop
     vertex -9.024170e-03  0.000000e+00 -4.308637e-03
     vertex -8.062520e-03  0.000000e+00 -5.915722e-03
     vertex -8.581050e-03  0.000000e+00 -5.134742e-03
   endloop
 endfacet
 facet normal  0.000000e+00 -1.000000e+00  0.000000e+00
   outer loop
     vertex -7.473136e-03  0.000000e+00 -6.644715e-03
     vertex -4.519003e-03  0.000000e+00 -8.920684e-03
     vertex -9.024170e-03  0.000000e+00 -4.308637e-03
   endloop
 endfacet
 facet normal  0.000000e+00 -1.000000e+00  0.000000e+00
   outer loop
     vertex -9.024170e-03  0.000000e+00 -4.308637e-03
     vertex -4.519003e-03  0.000000e+00 -8.920684e-03
     vertex -9.387985e-03  0.000000e+00 -3.444669e-03
   endloop
 endfacet
 facet normal  0.000000e+00  1.000000e+00  0.000000e+00
   outer loop
     vertex -2.776400e-03  0.000000e+00 -9.606852e-03
     vertex -3.663800e-03  0.000000e+00 -9.304653e-03
     vertex -4.519003e-03  0.000000e+00 -8.920684e-03
   endloop
 endfacet
 facet normal  0.000000e+00  1.000000e+00  0.000000e+00
   outer loop
     vertex  9.387985e-03  0.000000e+00 -3.444669e-03
     vertex  9.024170e-03  0.000000e+00 -4.308637e-03
     vertex  8.581050e-03  0.000000e+00 -5.134742e-03
   endloop
 endfacet
 facet normal  0.000000e+00 -1.000000e+00  0.000000e+00
   outer loop
     vertex  8.062520e-03  0.000000e+00 -5.915722e-03
     vertex  8.581050e-03  0.000000e+00 -5.134742e-03
     vertex  9.387985e-03  0.000000e+00 -3.444669e-03
   endloop
 endfacet
 facet normal  0.000000e+00 -1.000000e+00  0.000000e+00
   outer loop
     vertex  8.062520e-03  0.000000e+00 -5.915722e-03
     vertex  9.387985e-03  0.000000e+00 -3.444669e-03
     vertex  9.669298e-03  0.000000e+00 -2.550428e-03
   endloop
 endfacet
 facet normal  0.000000e+00  1.000000e+00  0.000000e+00
   outer loop
     vertex -9.865637e-03  0.000000e+00 -1.633774e-03
     vertex -9.387985e-03  0.000000e+00 -3.444669e-03
     vertex -9.669298e-03  0.000000e+00 -2.550428e-03
   endloop
 endfacet
 facet normal  0.000000e+00 -1.000000e+00  0.000000e+00
   outer loop
     vertex -2.776400e-03  0.000000e+00 -9.606852e-03
     vertex  9.364149e-04  0.000000e+00 -9.956060e-03
     vertex -2.323054e-03  0.000000e+00  9.726429e-03
   endloop
 endfacet
 facet normal  0.000000e+00 -1.000000e+00  0.000000e+00
   outer loop
     vertex -9.931372e-03  0.000000e+00  1.169553e-03
     vertex -9.387985e-03  0.000000e+00 -3.444669e-03
     vertex -2.323054e-03  0.000000e+00  9.726429e-03
   endloop
 endfacet
 facet normal  0.000000e+00 -1.000000e+00  0.000000e+00
   outer loop
     vertex  3.663800e-03  0.000000e+00 -9.304653e-03
     vertex  5.334493e-03  0.000000e+00 -8.458321e-03
     vertex -2.323054e-03  0.000000e+00  9.726429e-03
   endloop
 endfacet
 facet normal  0.000000e+00 -1.000000e+00 -0.000000e+00
   outer loop
     vertex -8.330942e-03  0.000000e+00  5.531312e-03
     vertex -9.931372e-03  0.000000e+00  1.169553e-03
     vertex -2.323054e-03  0.000000e+00  9.726429e-03
   endloop
 endfacet
 facet normal  0.000000e+00 -1.000000e+00 -0.000000e+00
   outer loop
     vertex -4.095904e-03  0.000000e+00  9.122696e-03
     vertex -4.932169e-03  0.000000e+00  8.699064e-03
     vertex -2.323054e-03  0.000000e+00  9.726429e-03
   endloop
 endfacet
 facet normal  0.000000e+00  1.000000e+00  0.000000e+00
   outer loop
     vertex -9.364149e-04  0.000000e+00 -9.956060e-03
     vertex -1.864601e-03  0.000000e+00 -9.824625e-03
     vertex -2.776400e-03  0.000000e+00 -9.606852e-03
   endloop
 endfacet
 facet normal  0.000000e+00  1.000000e+00 -0.000000e+00
   outer loop
     vertex -2.323054e-03  0.000000e+00  9.726429e-03
     vertex -4.095904e-03  0.000000e+00  9.122696e-03
     vertex -3.223643e-03  0.000000e+00  9.466157e-03
   endloop
 endfacet
 facet normal  0.000000e+00 -1.000000e+00 -0.000000e+00
   outer loop
     vertex -4.932169e-03  0.000000e+00  8.699064e-03
     vertex -8.330942e-03  0.000000e+00  5.531312e-03
     vertex -2.323054e-03  0.000000e+00  9.726429e-03
   endloop
 endfacet
 facet normal  0.000000e+00 -1.000000e+00  0.000000e+00
   outer loop
     vertex  6.818078e-03  0.000000e+00 -7.315313e-03
     vertex  8.062520e-03  0.000000e+00 -5.915722e-03
     vertex -2.323054e-03  0.000000e+00  9.726429e-03
   endloop
 endfacet
 facet normal  0.000000e+00 -1.000000e+00  0.000000e+00
   outer loop
     vertex  6.103103e-03  0.000000e+00 -7.921625e-03
     vertex  6.818078e-03  0.000000e+00 -7.315313e-03
     vertex -2.323054e-03  0.000000e+00  9.726429e-03
   endloop
 endfacet
 facet normal  0.000000e+00 -1.000000e+00  0.000000e+00
   outer loop
     vertex  5.334493e-03  0.000000e+00 -8.458321e-03
     vertex  6.103103e-03  0.000000e+00 -7.921625e-03
     vertex -2.323054e-03  0.000000e+00  9.726429e-03
   endloop
 endfacet
 facet normal  0.000000e+00 -1.000000e+00  0.000000e+00
   outer loop
     vertex  2.776400e-03  0.000000e+00 -9.606852e-03
     vertex  3.663800e-03  0.000000e+00 -9.304653e-03
     vertex -2.323054e-03  0.000000e+00  9.726429e-03
   endloop
 endfacet
 facet normal  0.000000e+00 -1.000000e+00  0.000000e+00
   outer loop
     vertex  1.864601e-03  0.000000e+00 -9.824625e-03
     vertex  2.776400e-03  0.000000e+00 -9.606852e-03
     vertex -2.323054e-03  0.000000e+00  9.726429e-03
   endloop
 endfacet
 facet normal  0.000000e+00 -1.000000e+00  0.000000e+00
   outer loop
     vertex  9.364149e-04  0.000000e+00 -9.956060e-03
     vertex  1.864601e-03  0.000000e+00 -9.824625e-03
     vertex -2.323054e-03  0.000000e+00  9.726429e-03
   endloop
 endfacet
 facet normal  0.000000e+00 -1.000000e+00  0.000000e+00
   outer loop
     vertex -4.519003e-03  0.000000e+00 -8.920684e-03
     vertex -2.776400e-03  0.000000e+00 -9.606852e-03
     vertex -2.323054e-03  0.000000e+00  9.726429e-03
   endloop
 endfacet
 facet normal  0.000000e+00 -1.000000e+00  0.000000e+00
   outer loop
     vertex -9.387985e-03  0.000000e+00 -3.444669e-03
     vertex -4.519003e-03  0.000000e+00 -8.920684e-03
     vertex -2.323054e-03  0.000000e+00  9.726429e-03
   endloop
 endfacet
 facet normal  0.000000e+00  1.000000e+00  0.000000e+00
   outer loop
     vertex -9.997252e-03  0.000000e+00  2.344257e-04
     vertex -9.865637e-03  0.000000e+00 -1.633774e-03
     vertex -9.975276e-03  0.000000e+00 -7.027619e-04
   endloop
 endfacet
 facet normal  0.000000e+00 -1.000000e+00  0.000000e+00
   outer loop
     vertex -2.323054e-03  0.000000e+00  9.726429e-03
     vertex  8.062520e-03  0.000000e+00 -5.915722e-03
     vertex -1.402049e-03  0.000000e+00  9.901225e-03
   endloop
 endfacet
 facet normal  0.000000e+00 -1.000000e+00  0.000000e+00
   outer loop
     vertex  8.062520e-03  0.000000e+00 -5.915722e-03
     vertex  9.669298e-03  0.000000e+00 -2.550428e-03
     vertex -1.402049e-03  0.000000e+00  9.901225e-03
   endloop
 endfacet
 facet normal  0.000000e+00  1.000000e+00  0.000000e+00
   outer loop
     vertex  9.975276e-03  0.000000e+00 -7.027619e-04
     vertex  9.865637e-03  0.000000e+00 -1.633774e-03
     vertex  9.669298e-03  0.000000e+00 -2.550428e-03
   endloop
 endfacet
 facet normal  0.000000e+00  1.000000e+00  0.000000e+00
   outer loop
     vertex  9.364149e-04  0.000000e+00 -9.956060e-03
     vertex  2.449294e-18  0.000000e+00 -1.000000e-02
     vertex -9.364149e-04  0.000000e+00 -9.956060e-03
   endloop
 endfacet
 facet normal  0.000000e+00 -1.000000e+00  0.000000e+00
   outer loop
     vertex -2.776400e-03  0.000000e+00 -9.606852e-03
     vertex -9.364149e-04  0.000000e+00 -9.956060e-03
     vertex  9.364149e-04  0.000000e+00 -9.956060e-03
   endloop
 endfacet
 facet normal  0.000000e+00 -1.000000e+00  0.000000e+00
   outer loop
     vertex -9.997252e-03  0.000000e+00  2.344257e-04
     vertex -9.865637e-03  0.000000e+00 -1.633774e-03
     vertex -9.931372e-03  0.000000e+00  1.169553e-03
   endloop
 endfacet
 facet normal  0.000000e+00 -1.000000e+00  0.000000e+00
   outer loop
     vertex  9.669298e-03  0.000000e+00 -2.550428e-03
     vertex  9.975276e-03  0.000000e+00 -7.027619e-04
     vertex  9.997252e-03  0.000000e+00  2.344257e-04
   endloop
 endfacet
 facet normal  0.000000e+00  1.000000e+00 -0.000000e+00
   outer loop
     vertex  4.687226e-04  0.000000e+00  9.989009e-03
     vertex -1.402049e-03  0.000000e+00  9.901225e-03
     vertex -4.687226e-04  0.000000e+00  9.989009e-03
   endloop
 endfacet
 facet normal  0.000000e+00 -1.000000e+00  0.000000e+00
   outer loop
     vertex -1.402049e-03  0.000000e+00  9.901225e-03
     vertex  9.669298e-03  0.000000e+00 -2.550428e-03
     vertex  4.687226e-04  0.000000e+00  9.989009e-03
   endloop
 endfacet
 facet normal  0.000000e+00 -1.000000e+00  0.000000e+00
   outer loop
     vertex -9.865637e-03  0.000000e+00 -1.633774e-03
     vertex -9.387985e-03  0.000000e+00 -3.444669e-03
     vertex -9.931372e-03  0.000000e+00  1.169553e-03
   endloop
 endfacet
 facet normal  0.000000e+00 -1.000000e+00  0.000000e+00
   outer loop
     vertex  9.669298e-03  0.000000e+00 -2.550428e-03
     vertex  9.997252e-03  0.000000e+00  2.344257e-04
     vertex  9.931372e-03  0.000000e+00  1.169553e-03
   endloop
 endfacet
 facet normal  0.000000e+00 -1.000000e+00  0.000000e+00
   outer loop
     vertex  4.687226e-04  0.000000e+00  9.989009e-03
     vertex  9.669298e-03  0.000000e+00 -2.550428e-03
     vertex  1.402049e-03  0.000000e+00  9.901225e-03
   endloop
 endfacet
 facet normal  0.000000e+00  1.000000e+00  0.000000e+00
   outer loop
     vertex  9.216207e-03  0.000000e+00  3.880919e-03
     vertex  9.539126e-03  0.000000e+00  3.000846e-03
     vertex  9.778214e-03  0.000000e+00  2.094403e-03
   endloop
 endfacet
 facet normal  0.000000e+00 -1.000000e+00  0.000000e+00
   outer loop
     vertex  9.931372e-03  0.000000e+00  1.169553e-03
     vertex  9.778214e-03  0.000000e+00  2.094403e-03
     vertex  9.216207e-03  0.000000e+00  3.880919e-03
   endloop
 endfacet
 facet normal  0.000000e+00 -1.000000e+00  0.000000e+00
   outer loop
     vertex  1.402049e-03  0.000000e+00  9.901225e-03
     vertex  9.669298e-03  0.000000e+00 -2.550428e-03
     vertex  9.216207e-03  0.000000e+00  3.880919e-03
   endloop
 endfacet
 facet normal  0.000000e+00 -1.000000e+00  0.000000e+00
   outer loop
     vertex  9.669298e-03  0.000000e+00 -2.550428e-03
     vertex  9.931372e-03  0.000000e+00  1.169553e-03
     vertex  9.216207e-03  0.000000e+00  3.880919e-03
   endloop
 endfacet
 facet normal -0.000000e+00 -1.000000e+00 -0.000000e+00
   outer loop
     vertex  2.323054e-03  0.000000e+00  9.726429e-03
     vertex  1.402049e-03  0.000000e+00  9.901225e-03
     vertex  4.095904e-03  0.000000e+00  9.122696e-03
   endloop
 endfacet
 facet normal -0.000000e+00  1.000000e+00 -0.000000e+00
   outer loop
     vertex  4.095904e-03  0.000000e+00  9.122696e-03
     vertex  2.323054e-03  0.000000e+00  9.726429e-03
     vertex  3.223643e-03  0.000000e+00  9.466157e-03
   endloop
 endfacet
 facet normal  0.000000e+00 -1.000000e+00  0.000000e+00
   outer loop
     vertex  1.402049e-03  0.000000e+00  9.901225e-03
     vertex  9.216207e-03  0.000000e+00  3.880919e-03
     vertex  4.095904e-03  0.000000e+00  9.122696e-03
   endloop
 endfacet
 facet normal -0.000000e+00 -1.000000e+00 -0.000000e+00
   outer loop
     vertex  4.932169e-03  0.000000e+00  8.699064e-03
     vertex  4.095904e-03  0.000000e+00  9.122696e-03
     vertex  8.330942e-03  0.000000e+00  5.531312e-03
   endloop
 endfacet
 facet normal  0.000000e+00  1.000000e+00  0.000000e+00
   outer loop
     vertex  8.330942e-03  0.000000e+00  5.531312e-03
     vertex  8.812296e-03  0.000000e+00  4.726885e-03
     vertex  9.216207e-03  0.000000e+00  3.880919e-03
   endloop
 endfacet
 facet normal  0.000000e+00 -1.000000e+00  0.000000e+00
   outer loop
     vertex  4.095904e-03  0.000000e+00  9.122696e-03
     vertex  9.216207e-03  0.000000e+00  3.880919e-03
     vertex  8.330942e-03  0.000000e+00  5.531312e-03
   endloop
 endfacet
 facet normal  0.000000e+00 -1.000000e+00  0.000000e+00
   outer loop
     vertex  4.932169e-03  0.000000e+00  8.699064e-03
     vertex  8.330942e-03  0.000000e+00  5.531312e-03
     vertex  5.725090e-03  0.000000e+00  8.198984e-03
   endloop
 endfacet
 facet normal  0.000000e+00  1.000000e+00  0.000000e+00
   outer loop
     vertex  5.334493e-03  0.000000e+00 -8.458321e-03
     vertex  4.519003e-03  0.000000e+00 -8.920684e-03
     vertex  3.663800e-03  0.000000e+00 -9.304653e-03
   endloop
 endfacet
 facet normal  0.000000e+00 -1.000000e+00  0.000000e+00
   outer loop
     vertex  5.725090e-03  0.000000e+00  8.198984e-03
     vertex  8.330942e-03  0.000000e+00  5.531312e-03
     vertex  7.776375e-03  0.000000e+00  6.287129e-03
   endloop
 endfacet
 facet normal  0.000000e+00 -1.000000e+00 -0.000000e+00
   outer loop
     vertex -9.778214e-03  0.000000e+00  2.094403e-03
     vertex -9.931372e-03  0.000000e+00  1.169553e-03
     vertex -8.330942e-03  0.000000e+00  5.531312e-03
   endloop
 endfacet
 facet normal  0.000000e+00 -1.000000e+00 -0.000000e+00
   outer loop
     vertex -9.539126e-03  0.000000e+00  3.000846e-03
     vertex -9.778214e-03  0.000000e+00  2.094403e-03
     vertex -8.330942e-03  0.000000e+00  5.531312e-03
   endloop
 endfacet
 facet normal  0.000000e+00 -1.000000e+00 -0.000000e+00
   outer loop
     vertex -9.216207e-03  0.000000e+00  3.880919e-03
     vertex -9.539126e-03  0.000000e+00  3.000846e-03
     vertex -8.330942e-03  0.000000e+00  5.531312e-03
   endloop
 endfacet
 facet normal  0.000000e+00  1.000000e+00 -0.000000e+00
   outer loop
     vertex -8.330942e-03  0.000000e+00  5.531312e-03
     vertex -9.216207e-03  0.000000e+00  3.880919e-03
     vertex -8.812296e-03  0.000000e+00  4.726885e-03
   endloop
 endfacet
 facet normal -0.000000e+00  1.000000e+00 -0.000000e+00
   outer loop
     vertex  7.153470e-03  0.000000e+00  6.987694e-03
     vertex  5.725090e-03  0.000000e+00  8.198984e-03
     vertex  6.467699e-03  0.000000e+00  7.626852e-03
   endloop
 endfacet
 facet normal  0.000000e+00 -1.000000e+00  0.000000e+00
   outer loop
     vertex  5.725090e-03  0.000000e+00  8.198984e-03
     vertex  7.776375e-03  0.000000e+00  6.287129e-03
     vertex  7.153470e-03  0.000000e+00  6.987694e-03
   endloop
 endfacet
endsolid
